<?xml version="1.0" encoding="utf-8"?>
<!-- Generator: Adobe Illustrator 19.2.1, SVG Export Plug-In . SVG Version: 6.00 Build 0)  -->
<svg version="1.1"
	 id="svg2" xmlns:cc="http://creativecommons.org/ns#" xmlns:dc="http://purl.org/dc/elements/1.1/" xmlns:inkscape="http://www.inkscape.org/namespaces/inkscape" xmlns:rdf="http://www.w3.org/1999/02/22-rdf-syntax-ns#" xmlns:sodipodi="http://sodipodi.sourceforge.net/DTD/sodipodi-0.dtd" xmlns:svg="http://www.w3.org/2000/svg"
	 xmlns="http://www.w3.org/2000/svg" xmlns:xlink="http://www.w3.org/1999/xlink" x="0px" y="0px" viewBox="0 0 322 506"
	 style="enable-background:new 0 0 322 506;" xml:space="preserve">
<style type="text/css">
	.st0{fill:#5441FF;}
</style>
<g id="layer1" transform="translate(0,-540.36218)">
	<g id="g4305">
		<g id="g4345" transform="translate(28,-40.00001)">
			<g id="text2994">
				<g id="text3769">
					<path id="path3774" class="st0" d="M121.8,961.5c28.2,0,48-4.5,59.4-13.5c11.4-9,17.1-20.4,17.1-34.4c0-10.3-2.5-19.1-7.4-26.4
						c-5-7.3-11.6-13.8-19.8-19.3c-8.2-5.5-17.8-10.4-28.6-14.8c-10.8-4.4-21.9-8.6-33.3-12.7c-11-4-21.9-8.5-32.7-13.5
						c-10.8-5-20.4-11-28.9-18.2c-8.4-7.2-15.3-15.8-20.6-25.8c-5.3-10.1-8-22.5-8-37.1c0-26,7.8-47.4,23.4-64.1
						c15.6-16.7,38.2-27.2,67.9-31.6V587h45.7v61.6c16.1,0.7,31.2,2.8,45.1,6.1c13.9,3.3,24.9,6.4,33,9.4l-10.5,42.9
						c-8.8-3.3-19.8-6.7-33-10.2c-13.2-3.5-29.7-5.2-49.5-5.2c-22,0-39,4.2-50.9,12.6c-11.9,8.4-17.9,20.4-17.9,35.8
						c0,8.4,1.7,15.6,5.2,21.4c3.5,5.9,8.5,11.1,15.1,15.7c6.6,4.6,14.4,8.7,23.4,12.4c9,3.7,19,7.5,30,11.6
						c14.3,5.5,27.9,11.2,40.7,17c12.8,5.9,24.1,12.9,33.8,21.2c9.7,8.2,17.5,18.1,23.4,29.4c5.9,11.4,8.8,25.1,8.8,41.3
						c0,26-7.9,47-23.6,63c-15.8,16-40.1,25.9-73.1,30v70.9h-45.7v-69.3c-25.7-0.7-46.6-3.6-62.7-8.5c-16.1-4.9-28.2-9.6-36.3-14
						L25,940.6c11,5.1,24.2,9.9,39.6,14.3C80,959.3,99.1,961.5,121.8,961.5L121.8,961.5z"/>
				</g>
			</g>
		</g>
	</g>
</g>
</svg>
