<?xml version="1.0" encoding="utf-8"?>
<!-- Generator: Adobe Illustrator 19.2.1, SVG Export Plug-In . SVG Version: 6.00 Build 0)  -->
<svg version="1.1" id="Icon" xmlns="http://www.w3.org/2000/svg" xmlns:xlink="http://www.w3.org/1999/xlink" x="0px" y="0px"
	 viewBox="0 0 17.5 10.1" style="enable-background:new 0 0 17.5 10.1;" xml:space="preserve">
<style type="text/css">
	.st0{fill:#5441FF;}
	.st1{fill:#FF9D22;}
	.st2{fill:#E13A6E;}
	.st3{fill:#5590F6;}
</style>
<g>
	<path class="st0" d="M-14.4-2.8c-4.3,0-7.7,2-7.7,4.1V6h15.4V1.3C-6.7-0.7-10.1-2.8-14.4-2.8z"/>
	<circle class="st0" cx="-14.4" cy="-7.8" r="3.9"/>
</g>
<g>
	<path class="st1" d="M1.6-2.8c-4.3,0-7.7,1.8-7.7,4.1V6H9.3V1.3C9.3-0.7,5.9-2.8,1.6-2.8z"/>
	<circle class="st1" cx="1.6" cy="-7.8" r="3.9"/>
</g>
<g>
	<path class="st2" d="M-6.3,1.1c-4.3,0-7.7,1.8-7.7,4.1v4.8H1.4V5.1C1.4,3.1-2,1.1-6.3,1.1z"/>
	<circle class="st2" cx="-6.3" cy="-3.9" r="3.9"/>
</g>
<g>
	<path class="st3" d="M9.8,1.1c-4.3,0-7.7,1.8-7.7,4.1v4.8h15.4V5.1C17.5,3.1,14.1,1.1,9.8,1.1z"/>
	<circle class="st3" cx="9.8" cy="-3.9" r="3.9"/>
</g>
</svg>
