<?xml version="1.0" encoding="utf-8"?>
<!-- Generator: Adobe Illustrator 19.2.1, SVG Export Plug-In . SVG Version: 6.00 Build 0)  -->
<svg version="1.1" id="Icon" xmlns="http://www.w3.org/2000/svg" xmlns:xlink="http://www.w3.org/1999/xlink" x="0px" y="0px"
	 viewBox="0 0 17.5 10.1" style="enable-background:new 0 0 17.5 10.1;" xml:space="preserve">
<style type="text/css">
	.st0{fill:#5441FF;}
	.st1{fill:#FF9D22;}
	.st2{fill:#E13A6E;}
	.st3{fill:#5590F6;}
</style>
<g>
	<path class="st0" d="M3.4,4.3C1.5,4.3,0,5.2,0,6.1v2.1h6.8V6.1C6.8,5.2,5.3,4.3,3.4,4.3z"/>
	<circle class="st0" cx="3.4" cy="2.1" r="1.7"/>
</g>
<g>
	<path class="st1" d="M10.5,4.3c-1.9,0-3.4,0.8-3.4,1.8v2.1h6.8V6.1C13.9,5.2,12.4,4.3,10.5,4.3z"/>
	<circle class="st1" cx="10.5" cy="2.1" r="1.7"/>
</g>
<g>
	<path class="st2" d="M7,6C5.1,6,3.6,6.8,3.6,7.8v2.1h6.8V7.8C10.4,6.9,8.9,6,7,6z"/>
	<circle class="st2" cx="7" cy="3.8" r="1.7"/>
</g>
<g>
	<path class="st3" d="M14.1,6c-1.9,0-3.4,0.8-3.4,1.8v2.1h6.8V7.8C17.5,6.9,16,6,14.1,6z"/>
	<circle class="st3" cx="14.1" cy="3.8" r="1.7"/>
</g>
</svg>
